<svg width="24" height="24" viewBox="0 0 24 24" fill="none" xmlns="http://www.w3.org/2000/svg">
<g clip-path="url(#clip0_2178_1379)">
<path d="M22.2189 11.7842L11.7839 22.2192C11.6041 22.418 11.5075 22.6783 11.5142 22.9463C11.521 23.2143 11.6304 23.4695 11.82 23.6591C12.0096 23.8487 12.2647 23.9581 12.5327 23.9648C12.8008 23.9716 13.0611 23.875 13.2599 23.6952L23.6949 13.2602C23.8748 13.0613 23.9713 12.801 23.9646 12.533C23.9579 12.265 23.8484 12.0098 23.6589 11.8202C23.4693 11.6307 23.2141 11.5212 22.9461 11.5145C22.6781 11.5078 22.4177 11.6043 22.2189 11.7842ZM20.1319 0.305163L0.304919 20.1322C0.125076 20.331 0.0285271 20.5913 0.0352401 20.8593C0.0419531 21.1273 0.151415 21.3825 0.340986 21.5721C0.530557 21.7617 0.785736 21.8711 1.05375 21.8778C1.32176 21.8846 1.5821 21.788 1.78092 21.6082L21.6079 1.78116C21.7878 1.58234 21.8843 1.322 21.8776 1.05399C21.8709 0.78598 21.7614 0.530801 21.5719 0.34123C21.3823 0.151659 21.1271 0.0421972 20.8591 0.0354842C20.5911 0.0287713 20.3307 0.12532 20.1319 0.305163Z" fill="black"/>
</g>
<defs>
<clipPath id="clip0_2178_1379">
<rect width="24" height="24" fill="white"/>
</clipPath>
</defs>
</svg>
